<mxfile host="app.diagrams.net" modified="2024-07-09T09:52:10.983Z" agent="Mozilla/5.0 (Macintosh; Intel Mac OS X 10_15_7) AppleWebKit/537.36 (KHTML, like Gecko) Chrome/126.0.0.0 Safari/537.36" etag="gVY092xsJBlTa6VVzU3i" version="24.6.4" type="github">
  <diagram name="Page-1" id="ag6JNuV7a8AcbBvIRJaS">
    <mxGraphModel dx="961" dy="732" grid="0" gridSize="10" guides="1" tooltips="1" connect="1" arrows="1" fold="1" page="0" pageScale="1" pageWidth="850" pageHeight="1100" math="0" shadow="0">
      <root>
        <mxCell id="0" />
        <mxCell id="1" parent="0" />
      </root>
    </mxGraphModel>
  </diagram>
</mxfile>
